<svg xmlns="http://www.w3.org/2000/svg" width="28.969" height="28.969" viewBox="0 0 28.969 28.969">
  <defs>
    <style>
      .cls-1 {
        fill: #c3ccd3;
        fill-rule: evenodd;
      }
    </style>
  </defs>
  <path id="Shape_8_copy" data-name="Shape 8 copy" class="cls-1" d="M878.264,24.995a14.484,14.484,0,1,0,14.483,14.484A14.5,14.5,0,0,0,878.264,24.995ZM881.2,42.511a0.8,0.8,0,0,1,.291-0.661,3.832,3.832,0,0,0,.973-2.115,0.473,0.473,0,0,1,.022-0.087,0.931,0.931,0,0,1,.1-0.053c0.547-.264.883-0.665,0.978-1.952a1.734,1.734,0,0,0-.384-1.179c0.069-.406.2-1.182,0.257-1.835a4.217,4.217,0,0,0-1.093-3.027,6.15,6.15,0,0,0-8.159,0,4.221,4.221,0,0,0-1.094,3.028c0.046,0.482.132,1.1,0.258,1.836a1.782,1.782,0,0,0-.383,1.215c0.094,1.255.429,1.653,0.978,1.916,0.039,0.019.087,0.043,0.1,0.05a0.321,0.321,0,0,1,.025.09,3.841,3.841,0,0,0,.973,2.116,0.8,0.8,0,0,1,.293.66c0,1.656-.752,2.382-3.494,3.381a19.046,19.046,0,0,0-4.121,1.963,13.477,13.477,0,1,1,21.1,0,19.014,19.014,0,0,0-4.12-1.963C881.949,44.893,881.2,44.166,881.2,42.511Z" transform="translate(-863.781 -25)"/>
</svg>
