<svg xmlns="http://www.w3.org/2000/svg" width="28" height="28" viewBox="0 0 28 28">
  <defs>
    <style>
      .cls-1 {
        fill: #06a8ff;
        fill-rule: evenodd;
      }
    </style>
  </defs>
  <path id="Skype_copy_2" data-name="Skype copy 2" class="cls-1" d="M713.383,40a2.419,2.419,0,0,1,1.457-2.006l1.16-.679-0.385-1.288a14.3,14.3,0,0,0-1.12-2.707l-0.639-1.182-1.3.34a2.068,2.068,0,0,1-.519.071,2.348,2.348,0,0,1-1.7-.884,2.046,2.046,0,0,1-.528-2.222l0.34-1.3-1.182-.639a14.3,14.3,0,0,0-2.708-1.121L704.97,26l-0.679,1.159a2.53,2.53,0,0,1-4.582,0L699.03,26l-1.287.384a14.372,14.372,0,0,0-2.707,1.12l-1.182.639,0.34,1.3a2.048,2.048,0,0,1-.528,2.223,2.351,2.351,0,0,1-1.7.884,2.062,2.062,0,0,1-.518-0.072l-1.3-.34-0.639,1.181a14.325,14.325,0,0,0-1.121,2.707L688,37.315l1.16,0.679A2.417,2.417,0,0,1,690.617,40a2.826,2.826,0,0,1-1.457,2.29l-1.16.679,0.385,1.288a14.313,14.313,0,0,0,1.121,2.708l0.639,1.181,1.3-.34a3.183,3.183,0,0,1,.8-0.114,1.912,1.912,0,0,1,1.426.642,2.049,2.049,0,0,1,.528,2.223l-0.34,1.3,1.182,0.639a14.3,14.3,0,0,0,2.708,1.121L699.031,54l0.679-1.159a2.529,2.529,0,0,1,4.581,0L704.97,54l1.288-.385a14.3,14.3,0,0,0,2.708-1.121l1.181-.639-0.34-1.3a2.051,2.051,0,0,1,.528-2.223,2.352,2.352,0,0,1,1.7-.884,2.057,2.057,0,0,1,.518.071l1.3,0.34L714.5,46.68a14.3,14.3,0,0,0,1.12-2.708L716,42.684l-1.16-.679A2.418,2.418,0,0,1,713.383,40Zm-4.252.081a7.156,7.156,0,0,0-7.052-7.256,6.914,6.914,0,0,0-1.206.106,3.988,3.988,0,0,0-2.177-.645,4.15,4.15,0,0,0-4.089,4.208,4.279,4.279,0,0,0,.562,2.129,7.452,7.452,0,0,0-.143,1.459,7.157,7.157,0,0,0,7.053,7.256,6.891,6.891,0,0,0,1.291-.122,3.983,3.983,0,0,0,1.933.5,4.15,4.15,0,0,0,4.09-4.208,4.288,4.288,0,0,0-.425-1.869A7.524,7.524,0,0,0,709.131,40.081ZM705.7,43.549a3.241,3.241,0,0,1-1.433,1.118,5.613,5.613,0,0,1-2.2.4,5.254,5.254,0,0,1-2.525-.545,3.341,3.341,0,0,1-1.161-1.061,2.352,2.352,0,0,1-.451-1.311,0.92,0.92,0,0,1,.294-0.685,1.018,1.018,0,0,1,.736-0.282,0.918,0.918,0,0,1,.621.223,1.641,1.641,0,0,1,.413.622,3.693,3.693,0,0,0,.406.739,1.565,1.565,0,0,0,.591.47,2.368,2.368,0,0,0,1.024.188,2.435,2.435,0,0,0,1.421-.381,1.071,1.071,0,0,0,.522-0.905,0.907,0.907,0,0,0-.272-0.688,1.927,1.927,0,0,0-.753-0.427c-0.321-.1-0.756-0.214-1.294-0.33a10.1,10.1,0,0,1-1.848-.569,3.057,3.057,0,0,1-1.212-.912,2.314,2.314,0,0,1-.456-1.454,2.4,2.4,0,0,1,.479-1.468,2.984,2.984,0,0,1,1.368-.978,5.848,5.848,0,0,1,2.07-.335,5.448,5.448,0,0,1,1.646.223,3.6,3.6,0,0,1,1.164.6,2.586,2.586,0,0,1,.686.793,1.779,1.779,0,0,1,.221.828,1,1,0,0,1-.29.7,0.955,0.955,0,0,1-.724.312,0.878,0.878,0,0,1-.608-0.2,2.314,2.314,0,0,1-.42-0.576,2.379,2.379,0,0,0-.633-0.806,1.941,1.941,0,0,0-1.178-.28,2.157,2.157,0,0,0-1.221.31,0.833,0.833,0,0,0-.438.7,0.65,0.65,0,0,0,.141.422,1.278,1.278,0,0,0,.42.328,3.086,3.086,0,0,0,.568.227c0.2,0.056.525,0.139,0.976,0.246,0.571,0.126,1.1.267,1.559,0.42a4.975,4.975,0,0,1,1.206.567,2.433,2.433,0,0,1,.8.864,2.636,2.636,0,0,1,.287,1.278A2.811,2.811,0,0,1,705.7,43.549Z" transform="translate(-688 -26)"/>
</svg>
