<svg id="Logo" xmlns="http://www.w3.org/2000/svg" width="61" height="32.031" viewBox="0 0 61 32.031">
  <defs>
    <style>
      .cls-1 {
        fill: #22224f;
      }

      .cls-1, .cls-2, .cls-3, .cls-4 {
        fill-rule: evenodd;
      }

      .cls-2 {
        fill: #0854a2;
      }

      .cls-3 {
        fill: #0470b8;
      }

      .cls-4 {
        fill: #1fabe2;
      }
    </style>
  </defs>
  <path class="cls-1" d="M156.177,32.813v1.779a0.528,0.528,0,0,1-.618.62H152.3V45.669a0.528,0.528,0,0,1-.618.622h-2.106a0.529,0.529,0,0,1-.618-0.622V35.212h-3.276a0.528,0.528,0,0,1-.618-0.62V32.813a0.528,0.528,0,0,1,.618-0.622h9.875A0.528,0.528,0,0,1,156.177,32.813Z" transform="translate(-120 -23.969)"/>
  <g>
    <path class="cls-2" d="M126.888,39.837a38.146,38.146,0,0,1,2.793-14.4,1.05,1.05,0,0,0-.557-1.363,1.021,1.021,0,0,0-1.339.567,40.134,40.134,0,0,0-2.923,14.156h-3.84a1.043,1.043,0,0,0,0,2.086h3.84a40.173,40.173,0,0,0,3.056,14.483,1.027,1.027,0,0,0,.945.638,1.012,1.012,0,0,0,.4-0.083,1.05,1.05,0,0,0,.546-1.367A38.111,38.111,0,0,1,126.888,39.837Z" transform="translate(-120 -23.969)"/>
    <path id="Shape_2_copy" data-name="Shape 2 copy" class="cls-3" d="M132.2,39.837a32.261,32.261,0,0,1,2.363-12.184,1.048,1.048,0,0,0-.557-1.363,1.019,1.019,0,0,0-1.339.567A34.719,34.719,0,0,0,132.78,53.1a1.028,1.028,0,0,0,.946.637,1,1,0,0,0,.4-0.083,1.049,1.049,0,0,0,.546-1.367A32.249,32.249,0,0,1,132.2,39.837Z" transform="translate(-120 -23.969)"/>
    <path id="Shape_2_copy_2" data-name="Shape 2 copy 2" class="cls-4" d="M139.566,50.357a27.54,27.54,0,0,1-.091-20.82,1.05,1.05,0,0,0-.557-1.363,1.021,1.021,0,0,0-1.339.567,29.656,29.656,0,0,0,.1,22.429,1.025,1.025,0,0,0,.944.637,1.012,1.012,0,0,0,.4-0.083A1.048,1.048,0,0,0,139.566,50.357Z" transform="translate(-120 -23.969)"/>
  </g>
  <g id="Group_1_copy" data-name="Group 1 copy">
    <path class="cls-2" d="M174.112,39.837a38.146,38.146,0,0,0-2.793-14.4,1.05,1.05,0,0,1,.558-1.363,1.021,1.021,0,0,1,1.338.567,40.134,40.134,0,0,1,2.923,14.156h3.84a1.043,1.043,0,0,1,0,2.086h-3.84a40.193,40.193,0,0,1-3.055,14.483,1.029,1.029,0,0,1-.946.638,1,1,0,0,1-.4-0.083,1.049,1.049,0,0,1-.546-1.367A38.129,38.129,0,0,0,174.112,39.837Z" transform="translate(-120 -23.969)"/>
    <path id="Shape_2_copy-2" data-name="Shape 2 copy" class="cls-3" d="M168.8,39.837a32.261,32.261,0,0,0-2.363-12.184A1.048,1.048,0,0,1,167,26.29a1.019,1.019,0,0,1,1.339.567A34.719,34.719,0,0,1,168.22,53.1a1.028,1.028,0,0,1-.946.637,1,1,0,0,1-.4-0.083,1.049,1.049,0,0,1-.546-1.367A32.249,32.249,0,0,0,168.8,39.837Z" transform="translate(-120 -23.969)"/>
    <path id="Shape_2_copy_2-2" data-name="Shape 2 copy 2" class="cls-4" d="M161.434,50.357a27.552,27.552,0,0,0,.091-20.82,1.049,1.049,0,0,1,.557-1.363,1.021,1.021,0,0,1,1.339.567,29.656,29.656,0,0,1-.1,22.429,1.025,1.025,0,0,1-.944.637,1,1,0,0,1-.4-0.083A1.048,1.048,0,0,1,161.434,50.357Z" transform="translate(-120 -23.969)"/>
  </g>
</svg>
