<svg xmlns="http://www.w3.org/2000/svg" width="11" height="12" viewBox="0 0 11 12">
  <defs>
    <style>
      .cls-1 {
        fill: #06a8ff;
        fill-rule: evenodd;
      }
    </style>
  </defs>
  <path class="cls-1" d="M969.4,1381.51a2.106,2.106,0,0,1,.214.99,2.246,2.246,0,0,1-.367,1.26,2.437,2.437,0,0,1-1.067.87,3.941,3.941,0,0,1-1.64.31,3.789,3.789,0,0,1-1.879-.42,2.628,2.628,0,0,1-.864-0.83,1.876,1.876,0,0,1-.336-1.02,0.75,0.75,0,0,1,.767-0.75,0.685,0.685,0,0,1,.462.17,1.315,1.315,0,0,1,.308.49,2.779,2.779,0,0,0,.3.57,1.188,1.188,0,0,0,.441.37,2.1,2.1,0,0,0,1.819-.15,0.864,0.864,0,0,0,.388-0.71,0.7,0.7,0,0,0-.2-0.53,1.394,1.394,0,0,0-.56-0.34c-0.239-.08-0.563-0.16-0.963-0.25a8.392,8.392,0,0,1-1.376-.44,2.347,2.347,0,0,1-.9-0.71,1.883,1.883,0,0,1-.34-1.14,1.927,1.927,0,0,1,.357-1.14,2.246,2.246,0,0,1,1.018-.76,4.244,4.244,0,0,1,1.54-.26,4.048,4.048,0,0,1,1.225.17,2.778,2.778,0,0,1,.867.47,1.913,1.913,0,0,1,.51.62,1.4,1.4,0,0,1,.164.64,0.79,0.79,0,0,1-.215.54,0.675,0.675,0,0,1-.539.25,0.632,0.632,0,0,1-.452-0.15,1.9,1.9,0,0,1-.313-0.45,1.87,1.87,0,0,0-.471-0.63,1.428,1.428,0,0,0-.877-0.22,1.555,1.555,0,0,0-.909.24,0.672,0.672,0,0,0-.325.55,0.512,0.512,0,0,0,.1.32,0.927,0.927,0,0,0,.313.26,3.518,3.518,0,0,0,.422.18c0.146,0.04.391,0.1,0.727,0.19a9.608,9.608,0,0,1,1.16.32,3.7,3.7,0,0,1,.9.44A1.931,1.931,0,0,1,969.4,1381.51Zm2.6,2.22a3.509,3.509,0,0,0-.316-1.46,6.055,6.055,0,0,0,.121-1.21,5.457,5.457,0,0,0-5.248-5.64,5.317,5.317,0,0,0-.9.08,2.855,2.855,0,0,0-1.619-.5,3.16,3.16,0,0,0-3.043,3.27,3.453,3.453,0,0,0,.418,1.66,5.935,5.935,0,0,0-.106,1.13,5.461,5.461,0,0,0,5.248,5.65,5.085,5.085,0,0,0,.961-0.1,2.839,2.839,0,0,0,1.439.39A3.16,3.16,0,0,0,972,1383.73Z" transform="translate(-961 -1375)"/>
</svg>
